<svg width="44" height="44" viewBox="0 0 44 44" xmlns="http://www.w3.org/2000/svg" xmlns:xlink="http://www.w3.org/1999/xlink">
    <defs>
        <path d="M0 0v5.609h7.688a6.678 6.678 0 0 1-2.85 4.376v3.638h4.617c2.7-2.524 4.26-6.241 4.26-10.657 0-1.028-.091-2.017-.26-2.966H0z" id="a"/>
        <path d="M0 0v3.757c2.35 4.739 7.182 7.988 12.766 7.988 3.857 0 7.091-1.298 9.455-3.513l-4.617-3.638c-1.28.87-2.916 1.384-4.838 1.384-3.72 0-6.87-2.55-7.993-5.978H0z" id="c"/>
        <path d="M1.52 0A14.674 14.674 0 0 0 0 6.512c0 2.34.552 4.554 1.52 6.512l4.772-3.757a8.831 8.831 0 0 1-.448-2.755c0-.956.162-1.885.448-2.755V0H1.52z" id="e"/>
        <path d="m0 7.988 4.773 3.757c1.123-3.427 4.273-5.978 7.993-5.978 2.098 0 3.98.732 5.461 2.169l4.098-4.16C19.85 1.437 16.617 0 12.766 0 7.182 0 2.351 3.25 0 7.988z" id="g"/>
    </defs>
    <g fill="none" fill-rule="evenodd">
        <g transform="translate(23.286 19.864)">
            <mask id="b" fill="#fff">
                <use xlink:href="#a"/>
            </mask>
            <path fill="#4285F4" mask="url(#b)" d="M-7.936 21.68H21.65V-8.057H-7.936z"/>
        </g>
        <g transform="translate(10.52 25.255)">
            <mask id="d" fill="#fff">
                <use xlink:href="#c"/>
            </mask>
            <path fill="#34A853" mask="url(#d)" d="M-7.937 19.8h38.094V-8.054H-7.937z"/>
        </g>
        <g transform="translate(9 15.988)">
            <mask id="f" fill="#fff">
                <use xlink:href="#e"/>
            </mask>
            <path fill="#FBBC05" mask="url(#f)" d="M-7.937 21.08H14.23V-8.056H-7.937z"/>
        </g>
        <g transform="translate(10.52 8)">
            <mask id="h" fill="#fff">
                <use xlink:href="#g"/>
            </mask>
            <path fill="#EA4335" mask="url(#h)" d="M-6.618 27.664h38.197V-.192H-6.618z"/>
        </g>
    </g>
</svg>
