<?xml version="1.0" encoding="UTF-8"?>
<svg width="34px" height="34px" viewBox="0 0 34 34" version="1.1" xmlns="http://www.w3.org/2000/svg" xmlns:xlink="http://www.w3.org/1999/xlink">
    <title>3F03F8AB-FDAE-4E2A-87B0-4FFCDD7E2EC1</title>
    <g id="리뉴얼" stroke="none" stroke-width="1" fill="none" fill-rule="evenodd">
        <g id="ps_ranking_my" transform="translate(-1155.000000, -309.000000)" fill="#808080">
            <g id="Group" transform="translate(715.000000, 293.000000)">
                <g id="btn_close" transform="translate(440.000000, 16.000000)">
                    <path d="M16.9705627,4.97056275 C17.5228475,4.97056275 17.9705627,5.418278 17.9705627,5.97056275 L17.9705627,15.9695627 L27.9705627,15.9705627 C28.5228475,15.9705627 28.9705627,16.418278 28.9705627,16.9705627 C28.9705627,17.5228475 28.5228475,17.9705627 27.9705627,17.9705627 L17.9705627,17.9695627 L17.9705627,27.9705627 C17.9705627,28.5228475 17.5228475,28.9705627 16.9705627,28.9705627 C16.418278,28.9705627 15.9705627,28.5228475 15.9705627,27.9705627 L15.9705627,17.9695627 L5.97056275,17.9705627 C5.418278,17.9705627 4.97056275,17.5228475 4.97056275,16.9705627 C4.97056275,16.418278 5.418278,15.9705627 5.97056275,15.9705627 L15.9705627,15.9695627 L15.9705627,5.97056275 C15.9705627,5.418278 16.418278,4.97056275 16.9705627,4.97056275 Z" id="Combined-Shape" transform="translate(16.970563, 16.970563) rotate(-315.000000) translate(-16.970563, -16.970563) "></path>
                </g>
            </g>
        </g>
    </g>
</svg>