<svg width="44" height="44" viewBox="0 0 44 44" xmlns="http://www.w3.org/2000/svg">
    <g fill="none" fill-rule="evenodd">
        <path d="m9.201 18.339-5.86-1.623c-.291-.08-.421.07-.29.341l9.707 19.452c.161.282.46.463.79.48a.698.698 0 0 1-.667-.526L9.201 18.34z" fill="#F46060" fill-rule="nonzero"/>
        <path d="M13.431 36.976a.514.514 0 0 1-.418-.523l1.196-22.616-6.021-2.278c-.283-.107-.466.041-.404.33l5.092 24.574a.698.698 0 0 0 .555.513z" fill="#FFA52E" fill-rule="nonzero"/>
        <path d="M14.755 7.94a.337.337 0 0 0-.353-.013.316.316 0 0 0-.161.305l-1.23 28.221a.514.514 0 0 0 .418.523.393.393 0 0 1-.27-.188.372.372 0 0 1-.025-.323l7.53-25.623-5.909-2.901z" fill="#87CC25" fill-rule="nonzero"/>
        <path d="m13.013 36.453.732-16.878-4.632-1.27 3.768 18.158a.698.698 0 0 0 .55.513.514.514 0 0 1-.418-.523z" fill="#F98526" fill-rule="nonzero" opacity=".4"/>
        <path d="M19.045 15.648 14 13.748l-.987 22.705a.514.514 0 0 0 .418.523.393.393 0 0 1-.27-.188.372.372 0 0 1-.025-.323l5.909-20.817z" fill="#74B502" fill-rule="nonzero" opacity=".4"/>
        <path d="M40.675 16.326 22.318 6.066a.416.416 0 0 0-.38-.037.397.397 0 0 0-.243.285l-8.559 30.165a.372.372 0 0 0 .024.322.393.393 0 0 0 .271.189c.036.007.072.01.109.01l19.252-.022a.857.857 0 0 0 .743-.501l7.426-19.37a.648.648 0 0 0-.286-.78z" fill="#1D7FF9" fill-rule="nonzero"/>
        <path d="M38.127 18.667 23.728 11.88c-.07-.033-.147.013-.175.104l-.324 1.141a.181.181 0 0 0 .08.216l14.386 6.403c.04.017.095-.02.121-.087l.327-.835c.037-.061.025-.136-.016-.155zm-1.2 3.067-14.375-5.7a.137.137 0 0 0-.114.013.13.13 0 0 0-.062.094l-.302 1.086a.168.168 0 0 0 .08.2l14.375 5.342c.042.016.095-.023.121-.086l.313-.803c.02-.065.005-.13-.035-.145v-.001zm-1.151 2.949-14.348-4.704a.142.142 0 0 0-.107.019.134.134 0 0 0-.06.088l-.293 1.022a.147.147 0 0 0 .084.184l14.338 4.379c.04.013.093-.026.117-.087l.302-.772c.018-.054.007-.116-.033-.128v-.001zm-1.11 2.836L20.353 23.73a.14.14 0 0 0-.163.108l-.28.98a.128.128 0 0 0 .005.102.134.134 0 0 0 .08.068l14.297 3.484c.042.011.093-.03.116-.087l.291-.743c.023-.053.01-.11-.033-.121v-.002z" fill="#FFF"/>
    </g>
</svg>
