<svg width="38" height="38" viewBox="0 0 38 38" xmlns="http://www.w3.org/2000/svg">
    <g fill="none" fill-rule="evenodd">
        <circle fill="#BAC7D8" cx="19" cy="19" r="17"/>
        <path d="M22.971 12.605c.104.913-.07 2.049-.543 3.183-.816 1.954-2.253 3.26-3.42 3.21-1.168.05-2.605-1.256-3.42-3.21a7.346 7.346 0 0 1-.55-2.165 4.172 4.172 0 0 1-.038-.557C15 10.821 16.79 9 18.998 9c2.055 0 3.748 1.576 3.973 3.605zM12.136 27A5.123 5.123 0 0 1 12 25.833C12 22.612 15.134 20 19 20s7 2.612 7 5.833c0 .394-.047.785-.136 1.167H12.136z" fill="#FFF"/>
    </g>
</svg>
