<?xml version="1.0" encoding="UTF-8"?>
<svg width="24px" height="24px" viewBox="0 0 24 24" version="1.1" xmlns="http://www.w3.org/2000/svg" xmlns:xlink="http://www.w3.org/1999/xlink">
    <!-- Generator: sketchtool 54.1 (76490) - https://sketchapp.com -->
    <title>3CFE61A0-3699-4988-B8AC-0E4E4012D327</title>
    <desc>Created with sketchtool.</desc>
    <defs>
        <path d="M10,9 L12.7086975,4.48550424 C12.8894207,4.18429883 13.2149275,4 13.5661904,4 L14,4 C14.4399622,4 14.796622,4.35665981 14.796622,4.79662198 C14.796622,4.85564564 14.7900622,4.91448647 14.7770635,4.972061 C14.5307712,6.06301138 14.3544924,6.90917626 14.24824,7.51055854 C14.0443178,8.66474604 14.6722049,9 15.5,9 L18.8195396,9 C19.3718243,9 19.8195396,9.44771525 19.8195396,10 C19.8195396,10.0550809 19.8149887,10.1100676 19.8059335,10.164399 L18.6392668,17.164399 C18.5589022,17.646587 18.1417121,18 17.6528729,18 L11,18 C10.4477153,18 10,17.5522847 10,17 L10,9 Z M7,9 L8,9 C8.55228475,9 9,9.44771525 9,10 L9,17 C9,17.5522847 8.55228475,18 8,18 L7,18 C6.44771525,18 6,17.5522847 6,17 L6,10 C6,9.44771525 6.44771525,9 7,9 Z" id="path-1"></path>
    </defs>
    <g id="Symbols" stroke="none" stroke-width="1" fill="none" fill-rule="evenodd">
        <g id="ic/small/like">
            <mask id="mask-2" fill="white">
                <use xlink:href="#path-1"></use>
            </mask>
            <use id="Combined-Shape" fill="#666666" xlink:href="#path-1"></use>
        </g>
    </g>
</svg>