<svg width="40" height="40" viewBox="0 0 40 40" xmlns="http://www.w3.org/2000/svg">
    <g fill="none" fill-rule="evenodd">
        <path fill="#FFF" d="M-941-1076H979V71H-941z"/>
        <path d="M-455-29h948V71h-948z"/>
        <g>
            <rect fill="#F2F4F6" x="1" y="1" width="38" height="38" rx="19"/>
            <path d="m28 14.254-1.277 1.157a.344.344 0 0 0-.143.338v8.502c-.022.129.032.259.143.338l1.247 1.157V26h-6.274v-.254l1.292-1.185c.127-.12.127-.155.127-.339v-6.871l-3.593 8.62h-.486l-4.183-8.62v5.778a.77.77 0 0 0 .232.663l1.68 1.926v.254H12v-.254l1.68-1.926a.741.741 0 0 0 .217-.663v-6.681a.569.569 0 0 0-.201-.494l-1.494-1.7V14h4.638l3.586 7.429L23.578 14H28v.254z" fill="#72787F" fill-rule="nonzero"/>
        </g>
    </g>
</svg>
