<svg width="40" height="40" viewBox="0 0 40 40" xmlns="http://www.w3.org/2000/svg">
    <g fill="none" fill-rule="evenodd">
        <path fill="#FFF" d="M-841-1076h1920V71H-841z"/>
        <path d="M-355-29h948V71h-948z"/>
        <g>
            <rect fill="#F2F4F6" x="1" y="1" width="38" height="38" rx="19"/>
            <path d="M20 11c6.075 0 11 3.818 11 8.527 0 4.71-4.925 8.528-11 8.528-.654 0-1.918-.13-1.918-.13l-4.725 3.035c-.18.116-.415-.036-.375-.243l.795-4.157C10.892 25.023 9 22.447 9 19.527 9 14.818 13.924 11 20 11zm4.386 6.076a.58.58 0 0 0-.585.575v4.234a.58.58 0 0 0 .585.576.58.58 0 0 0 .585-.576V20.58l.334-.328 1.554 2.004a.528.528 0 0 0 .732.102.507.507 0 0 0 .104-.72l-1.643-2.12 1.485-1.46a.5.5 0 0 0 0-.714.522.522 0 0 0-.728 0l-1.838 1.805v-1.497a.58.58 0 0 0-.585-.575zm-6.741 0a.927.927 0 0 0-.254.035.837.837 0 0 0-.22.097.723.723 0 0 0-.17.148.628.628 0 0 0-.08.125c-.02.04-.097.257-.122.324l-.027.07-.033.086-.037.097-.041.11-.045.12-.05.129-.052.138-.055.146-.058.152-.06.158-.062.162-.063.166-.063.168-.065.17-.064.17-.064.168-.064.167-.062.165-.061.16-.06.156-.056.15-.054.143-.051.135-.048.126-.044.115a41.084 41.084 0 0 1-.075.197l-.03.08-.025.065-.018.05-.013.033a.513.513 0 0 0 .314.674.526.526 0 0 0 .668-.315l.27-.754h2.161l.27.754c.095.268.395.41.667.315a.513.513 0 0 0 .321-.656l-1.58-4.248-.005-.004c-.101-.259-.393-.447-.74-.447zm-2.1.074h-3.17a.535.535 0 0 0-.54.53c0 .293.242.53.54.53h1.03v3.732a.528.528 0 0 0 .526.516h.116a.529.529 0 0 0 .37-.15.515.515 0 0 0 .155-.366V18.21h.973c.298 0 .54-.237.54-.53a.535.535 0 0 0-.54-.53zm5.36-.074a.58.58 0 0 0-.585.575v4.292c0 .266.22.482.49.482h2.154c.271 0 .49-.216.49-.482a.485.485 0 0 0-.49-.48h-1.473V17.65a.58.58 0 0 0-.586-.575zm-3.285 1.287.023.002.726 2.035h-1.476l.727-2.037z" fill="#72787F"/>
        </g>
    </g>
</svg>
