<svg width="40" height="40" viewBox="0 0 40 40" xmlns="http://www.w3.org/2000/svg">
    <g fill="none" fill-rule="evenodd">
        <path fill="#FFF" d="M-991-1076H929V71H-991z"/>
        <path d="M-505-29h948V71h-948z"/>
        <g>
            <rect fill="#F2F4F6" x="1" y="1" width="38" height="38" rx="19"/>
            <path d="M27.948 14.366 25.23 27.095c-.203.898-.738 1.121-1.497.699l-4.138-3.033-1.997 1.908c-.222.22-.405.402-.834.402l.3-4.189 7.67-6.889c.335-.293-.073-.457-.516-.164l-9.486 5.939-4.081-1.268c-.89-.276-.904-.884.186-1.307l15.969-6.113c.738-.276 1.385.164 1.142 1.286z" fill="#72787F" fill-rule="nonzero"/>
        </g>
    </g>
</svg>
