<svg width="40" height="40" viewBox="0 0 40 40" xmlns="http://www.w3.org/2000/svg">
    <g fill="none" fill-rule="evenodd">
        <path fill="#FFF" d="M-891-1076h1920V71H-891z"/>
        <path d="M-405-29h948V71h-948z"/>
        <g>
            <rect fill="#F2F4F6" x="1" y="1" width="38" height="38" rx="19"/>
            <path d="M29.052 21.627a1.215 1.215 0 0 1-1.206-1.222c0-.675.54-1.223 1.206-1.223.666 0 1.206.548 1.206 1.223 0 .674-.54 1.222-1.206 1.222zm1.123-3.965v.531s-.54-.724-1.576-.724c0 0-2.658-.113-2.658 2.915 0 0-.03 2.822 2.586 2.822 0 0 1.064.044 1.648-.725v.445s.132 1.389-1.197 1.389h-.451V26h.728S32 26.03 32 23.028v-5.366h-1.825zm-8.356 3.965a1.215 1.215 0 0 1-1.206-1.222c0-.675.54-1.223 1.206-1.223.665 0 1.208.548 1.208 1.223 0 .674-.543 1.222-1.208 1.222zm-.001-4.158s-3.102.001-3.102 2.936c0 0-.1 2.895 3.102 2.895 0 0 3.174-.005 3.174-2.895 0 0 .104-2.936-3.174-2.936zM14.724 15v1.834s.857-.04.857 1.577v4.69h1.811v-5.124S17.47 15 14.724 15zm-3.662 6.627a1.216 1.216 0 0 1-1.209-1.222c0-.675.541-1.223 1.209-1.223.665 0 1.205.548 1.205 1.223 0 .674-.54 1.222-1.205 1.222zm.413-4.182s-.837 0-1.597.748v-3.016H8v7.925h1.897v-.62s.448.818 1.578.818c0 0 2.646-.098 2.646-2.957 0 0-.096-2.898-2.646-2.898z" fill="#72787F"/>
        </g>
    </g>
</svg>
