<svg width="164" height="32" viewBox="0 0 164 32" xmlns="http://www.w3.org/2000/svg" xmlns:xlink="http://www.w3.org/1999/xlink">
    <defs>
        <path id="a" d="M0 0h17.683v12.36H0z"/>
    </defs>
    <g fill="none" fill-rule="evenodd">
        <g transform="translate(11.945 1.906)">
            <mask id="b" fill="#fff">
                <use xlink:href="#a"/>
            </mask>
            <path fill="#1C7EF9" mask="url(#b)" d="M14.604 12.36h3.079L10.663 0H.002L0 .003l1.548 2.71h7.573z"/>
        </g>
        <path fill="#0B62CF" d="m6.616 11.282 5.395 9.509h3.084L9.7 11.28 13.49 4.62h.005l-1.549-2.71z"/>
        <path fill="#1C7EF9" d="m24.012 19.718-5.395-9.509h-3.084l5.395 9.51-3.788 6.661 1.546 2.705z"/>
        <path fill="#0B62CF" d="M9.562 26.38 4.08 16.735H1l7.02 12.358h10.661l.005-.008-1.546-2.705v.001z"/>
        <path d="M99.161 8c.27 0 .556.007.858.02.3.013.595.03.884.05.289.02.563.046.82.079.259.033.474.063.646.089.209.04.313.152.313.337v.852c0 .211-.104.317-.313.317h-.037c-.406-.027-.9-.053-1.484-.08a37.422 37.422 0 0 0-1.687-.04c-.958 0-1.65.133-2.073.397-.424.264-.636.76-.636 1.486 0 .463.159.866.477 1.209.32.344.828.74 1.526 1.189l1.692 1.09c.526.343.974.673 1.341.99.368.318.668.635.901.951.233.318.398.648.496.991.098.344.147.713.147 1.11 0 .476-.067.951-.202 1.427a3.206 3.206 0 0 1-.71 1.278c-.338.376-.802.68-1.392.911-.59.231-1.34.347-2.249.347-.651 0-1.223-.03-1.714-.089-.492-.06-.94-.122-1.346-.188-.16-.027-.258-.066-.294-.12a.416.416 0 0 1-.056-.237v-.793c0-.105.03-.185.092-.238a.329.329 0 0 1 .222-.079h.055c.209.027.445.047.71.06.264.013.534.023.81.03l.811.02c.265.006.501.01.71.01.553 0 1.01-.057 1.374-.17.362-.111.648-.27.857-.475.209-.205.356-.452.442-.743.086-.29.13-.607.13-.951 0-.25-.038-.479-.111-.684a1.928 1.928 0 0 0-.369-.604 4.735 4.735 0 0 0-.682-.624 18.713 18.713 0 0 0-1.05-.743l-1.789-1.17c-.848-.554-1.484-1.112-1.908-1.674-.424-.561-.636-1.238-.636-2.03 0-1.203.384-2.088 1.152-2.656.768-.568 1.86-.852 3.272-.852zM49.696 8a5.47 5.47 0 0 1 2.003.357c.61.237 1.136.607 1.58 1.11.442.501.787 1.146 1.033 1.931.247.786.37 1.728.37 2.824v2.556c0 1.097-.123 2.038-.37 2.824-.246.786-.59 1.43-1.033 1.932a4.04 4.04 0 0 1-1.58 1.11 5.466 5.466 0 0 1-2.003.356 5.466 5.466 0 0 1-2.004-.357 4.037 4.037 0 0 1-1.579-1.11c-.443-.501-.791-1.145-1.043-1.931-.253-.786-.379-1.727-.379-2.824v-2.556c0-1.096.126-2.038.379-2.824.252-.785.6-1.43 1.043-1.932a4.04 4.04 0 0 1 1.579-1.11A5.47 5.47 0 0 1 49.696 8zm8.912.139c.098 0 .185.04.258.119.074.079.11.171.11.277v10.78c0 .383.029.703.084.96.055.258.162.47.322.634.16.166.387.285.682.357.295.073.689.11 1.18.11h3.558c.135 0 .203.078.203.237v.931a.35.35 0 0 1-.047.179.203.203 0 0 1-.138.099c-.246.04-.688.079-1.327.118-.639.04-1.395.06-2.267.06-.492 0-.974-.04-1.447-.119a3.055 3.055 0 0 1-1.263-.505c-.369-.258-.664-.627-.885-1.11-.221-.482-.332-1.132-.332-1.952V8.535c0-.106.037-.198.111-.277a.342.342 0 0 1 .258-.12h.94zm55.41-.1c.197 0 .415.007.655.02l.719.039c.24.013.463.032.672.058.21.026.381.045.517.058.184.026.313.064.387.116.073.051.11.142.11.27v.097c0 .143-.049.238-.147.284-.099.046-.24.056-.424.03-.037 0-.155-.01-.352-.03a31.426 31.426 0 0 0-1.46-.11c-.272-.012-.506-.019-.703-.019-1.233 0-2.12.189-2.663.566-.542.377-.813.936-.813 1.676 0 .358.052.672.157.943.105.271.262.529.471.774.21.245.472.486.786.724.314.238.675.49 1.081.754l1.183.774c.542.357 1.016.685 1.423.982.407.298.746.605 1.017.923.27.317.474.654.61 1.012a3.4 3.4 0 0 1 .203 1.21c0 .45-.056.9-.167 1.35-.11.45-.323.856-.637 1.22s-.752.658-1.313.883c-.56.224-1.284.337-2.17.337-.605 0-1.135-.02-1.59-.058a12.192 12.192 0 0 1-1.11-.135.995.995 0 0 1-.377-.116c-.08-.052-.12-.149-.12-.29v-.078c0-.156.046-.254.138-.294a.532.532 0 0 1 .286-.04c.148.027.326.05.536.07.21.02.437.04.684.06.247.02.502.036.767.049.265.013.527.02.786.02.703 0 1.276-.076 1.72-.228.443-.153.791-.364 1.044-.635.253-.272.428-.586.527-.943.098-.357.148-.74.148-1.15 0-.371-.052-.689-.157-.953a2.457 2.457 0 0 0-.498-.764 5.616 5.616 0 0 0-.875-.744 62.263 62.263 0 0 0-1.309-.893l-1.161-.774a27.48 27.48 0 0 1-1.161-.814 5.276 5.276 0 0 1-.922-.863 3.599 3.599 0 0 1-.6-1.022 3.547 3.547 0 0 1-.211-1.27c0-.608.122-1.111.368-1.508s.572-.71.978-.942a4.293 4.293 0 0 1 1.382-.486 8.979 8.979 0 0 1 1.585-.14zm22.268 0c.294 0 .543.083.746.248.203.166.347.4.433.704l3.78 13.434a.583.583 0 0 1 0 .357c-.038.092-.124.139-.259.139h-.221c-.147 0-.246-.086-.295-.258l-1.548-5.37h-5.31l-1.51 5.37a.473.473 0 0 1-.12.178.252.252 0 0 1-.176.08h-.24c-.122 0-.205-.047-.248-.139-.043-.092-.046-.211-.01-.357l3.78-13.415c.085-.303.23-.54.433-.713.202-.171.457-.257.765-.257zM37.502 8c.75 0 1.438.076 2.065.228.627.152 1.17.396 1.631.733.461.337.82.78 1.079 1.328.258.548.387 1.218.387 2.01v.258c0 .833-.13 1.53-.387 2.09a3.536 3.536 0 0 1-1.079 1.368 4.35 4.35 0 0 1-1.631.753 8.756 8.756 0 0 1-2.065.228c-.295 0-.614-.01-.958-.03a17.92 17.92 0 0 1-.885-.07v5.569a.44.44 0 0 1-.092.277.29.29 0 0 1-.24.12h-.995a.289.289 0 0 1-.24-.12.438.438 0 0 1-.092-.277V8.654c0-.29.147-.456.442-.496.393-.052.867-.092 1.42-.118.553-.027 1.1-.04 1.64-.04zm33.77 0c.172 0 .35.02.534.06.185.04.363.115.535.227.172.113.329.265.47.456.141.192.249.44.323.743l3.41 12.92a.368.368 0 0 1 .018.138c0 .212-.104.317-.313.317H75.16a.248.248 0 0 1-.202-.089.605.605 0 0 1-.111-.208l-1.198-4.557h-4.774l-1.18 4.557a.492.492 0 0 1-.13.208.287.287 0 0 1-.202.09h-1.088c-.209 0-.313-.106-.313-.318a.36.36 0 0 1 .018-.138l3.41-12.9a2.06 2.06 0 0 1 .323-.743 1.747 1.747 0 0 1 1.014-.694c.19-.046.372-.069.544-.069zm11.041 0c.725 0 1.404.073 2.037.218.633.146 1.18.384 1.641.714.46.33.823.766 1.087 1.308s.397 1.216.397 2.022v.139c0 .555-.071 1.054-.212 1.496-.142.443-.342.83-.6 1.16-.258.33-.565.608-.921.833a4.439 4.439 0 0 1-1.162.515l3.355 6.02a.374.374 0 0 1 .056.179c0 .171-.08.257-.24.257h-1.18c-.11 0-.2-.01-.267-.03-.067-.02-.138-.095-.212-.227l-3.3-5.905h-.479c-.307 0-.599-.003-.875-.01a39.774 39.774 0 0 1-1.152-.05v5.826a.44.44 0 0 1-.093.277.29.29 0 0 1-.24.12h-.995a.289.289 0 0 1-.24-.12.438.438 0 0 1-.091-.277V8.595c0-.146.03-.248.092-.308.061-.06.178-.102.35-.128.196-.027.427-.05.691-.07.264-.02.541-.036.83-.05A41.207 41.207 0 0 1 82.313 8zm9.457.139a.3.3 0 0 1 .24.109.401.401 0 0 1 .092.267v13.95a.44.44 0 0 1-.093.277.29.29 0 0 1-.24.12h-1.013a.29.29 0 0 1-.24-.12.44.44 0 0 1-.092-.277V8.515a.4.4 0 0 1 .092-.267.3.3 0 0 1 .24-.11h1.014zm28.755 0c.099 0 .176.036.23.109a.429.429 0 0 1 .084.267v6.064h7.373V8.515c0-.105.028-.195.085-.267a.282.282 0 0 1 .236-.11h.17c.1 0 .179.037.235.11a.423.423 0 0 1 .085.267v13.97a.423.423 0 0 1-.085.267.282.282 0 0 1-.235.11h-.17c-.101 0-.18-.037-.236-.11a.422.422 0 0 1-.085-.267V15.39h-7.373v7.094a.428.428 0 0 1-.083.267.273.273 0 0 1-.23.11h-.185a.273.273 0 0 1-.23-.11.428.428 0 0 1-.083-.267V8.515c0-.105.027-.195.083-.267a.273.273 0 0 1 .23-.11h.184zm26.212-.1c.823 0 1.548.07 2.175.209.627.139 1.152.366 1.576.683.424.317.74.734.95 1.249.209.515.313 1.149.313 1.902v.099c0 1.215-.277 2.127-.83 2.734-.552.608-1.376 1.011-2.47 1.21l3.724 6.162c.074.132.098.26.074.386-.025.126-.117.188-.277.188h-.24a.274.274 0 0 1-.156-.06.435.435 0 0 1-.12-.118l-3.926-6.46a2.871 2.871 0 0 1-.406.01 6.161 6.161 0 0 0-.387-.01h-1.456c-.295 0-.602-.006-.922-.02v6.282a.428.428 0 0 1-.083.267.273.273 0 0 1-.23.11h-.184a.273.273 0 0 1-.231-.11.428.428 0 0 1-.083-.267V8.495c0-.092.03-.175.092-.247a.357.357 0 0 1 .222-.13c.16-.012.362-.022.608-.029a312.898 312.898 0 0 1 1.576-.04c.264-.006.494-.01.691-.01zm14.913.1c.233 0 .35.112.35.337v.158c0 .212-.117.317-.35.317h-4.756c-.221 0-.421.017-.6.05a.931.931 0 0 0-.442.198.99.99 0 0 0-.276.426c-.068.185-.102.43-.102.733v4.36h6.176c.233 0 .35.105.35.316v.198c0 .225-.117.337-.35.337h-6.176v5.073c0 .304.034.548.102.733.067.185.16.327.276.426.117.1.264.165.443.198.178.033.378.05.599.05h4.756c.233 0 .35.106.35.317v.159c0 .224-.117.336-.35.336h-4.756c-.7 0-1.248-.161-1.64-.485-.394-.324-.59-.902-.59-1.734V10.358c0-.832.196-1.41.59-1.734.392-.323.94-.485 1.64-.485h4.756zM49.696 9.625a3.57 3.57 0 0 0-1.36.248 2.51 2.51 0 0 0-1.04.802c-.287.37-.507.846-.66 1.427-.154.581-.23 1.288-.23 2.12v2.556c0 .832.076 1.54.23 2.12.153.582.37 1.057.652 1.427.281.37.627.638 1.038.802.41.166.867.248 1.37.248.502 0 .956-.082 1.36-.248a2.438 2.438 0 0 0 1.03-.802c.28-.37.499-.845.652-1.427.153-.58.23-1.288.23-2.12v-2.556c0-.832-.077-1.539-.23-2.12-.153-.581-.371-1.057-.653-1.427a2.443 2.443 0 0 0-1.029-.802 3.57 3.57 0 0 0-1.36-.248zm21.576-.06c-.184 0-.308.12-.369.357l-1.677 6.52H73.3l-1.678-6.52c-.062-.238-.178-.356-.35-.356zm65.014-.713c-.136 0-.234.036-.295.109a.618.618 0 0 0-.13.267l-2.027 7.193h4.885l-2.01-7.174a.711.711 0 0 0-.129-.276c-.061-.08-.16-.12-.294-.12zm-98.784.674c-.283 0-.605.007-.967.02-.363.013-.655.033-.876.06v5.785c.11 0 .246.007.406.02.16.013.325.023.497.03l.507.02c.166.006.31.01.433.01 1.266 0 2.163-.231 2.692-.692.528-.46.792-1.205.792-2.232v-.257c0-1-.283-1.71-.848-2.132-.565-.421-1.444-.632-2.636-.632zm109.235-.674c-.393 0-.817.007-1.272.02-.455.013-.823.033-1.106.06v6.459h.507c.215 0 .44.003.673.01.233.007.458.01.673.01h.525c.713 0 1.333-.05 1.862-.15.528-.1.964-.269 1.309-.508.344-.239.602-.568.774-.987.172-.418.258-.947.258-1.585v-.1c0-.624-.09-1.142-.267-1.554a2.329 2.329 0 0 0-.802-.997c-.357-.252-.796-.429-1.318-.528a9.774 9.774 0 0 0-1.816-.15zm-64.424.773h-.498c-.184 0-.371.003-.561.01-.191.006-.372.013-.544.02a5.789 5.789 0 0 0-.424.03v5.448a75.93 75.93 0 0 0 2.027.04c.565 0 1.066-.043 1.503-.13.436-.085.801-.234 1.097-.446.295-.213.519-.494.672-.846.154-.35.23-.798.23-1.342v-.14c0-.994-.294-1.683-.884-2.067-.59-.385-1.463-.577-2.618-.577z" fill="#0046B9"/>
    </g>
</svg>
