<svg width="205" height="40" viewBox="0 0 205 40" fill="none" xmlns="http://www.w3.org/2000/svg">
<mask id="mask0_46_1600" style="mask-type:alpha" maskUnits="userSpaceOnUse" x="14" y="2" width="24" height="16">
<path d="M14.9312 2.38245H37.035V17.8324H14.9312V2.38245Z" fill="white"/>
</mask>
<g mask="url(#mask0_46_1600)">
<path fill-rule="evenodd" clip-rule="evenodd" d="M33.1862 17.8324H37.035L28.26 2.38245H14.9337L14.9312 2.3862L16.8662 5.7737H26.3325L33.1862 17.8324Z" fill="#1C7EF9"/>
</g>
<path fill-rule="evenodd" clip-rule="evenodd" d="M8.26999 14.1024L15.0137 25.9887H18.8687L12.125 14.0999L16.8625 5.77495H16.8687L14.9325 2.38745L8.26999 14.1024Z" fill="#0B62CF"/>
<path fill-rule="evenodd" clip-rule="evenodd" d="M30.015 24.6475L23.2713 12.7612H19.4163L26.16 24.6487L21.425 32.975L23.3575 36.3562L30.015 24.6475Z" fill="#1C7EF9"/>
<path fill-rule="evenodd" clip-rule="evenodd" d="M11.9525 32.975L5.1 20.9187H1.25L10.025 36.3662H23.3513L23.3575 36.3562L21.425 32.975V32.9762L11.9525 32.975Z" fill="#0B62CF"/>
<path fill-rule="evenodd" clip-rule="evenodd" d="M123.951 9.99995C124.289 9.99995 124.646 10.0087 125.024 10.025C125.399 10.0412 125.768 10.0625 126.129 10.0875C126.49 10.1125 126.833 10.145 127.154 10.1862C127.478 10.2275 127.746 10.265 127.961 10.2975C128.223 10.3475 128.353 10.4875 128.353 10.7187V11.7837C128.353 12.0475 128.223 12.18 127.961 12.18H127.915C127.408 12.1462 126.79 12.1137 126.06 12.0799C125.358 12.0474 124.654 12.0308 123.951 12.0299C122.754 12.0299 121.889 12.1962 121.36 12.5262C120.83 12.8562 120.565 13.4762 120.565 14.3837C120.565 14.9624 120.764 15.4662 121.161 15.8949C121.561 16.3249 122.196 16.8199 123.069 17.3812L125.184 18.7437C125.841 19.1724 126.401 19.5849 126.86 19.9812C127.32 20.3787 127.695 20.7749 127.986 21.1699C128.278 21.5674 128.484 21.9799 128.606 22.4087C128.729 22.8387 128.79 23.2999 128.79 23.7962C128.79 24.3912 128.706 24.9849 128.538 25.5799C128.369 26.1737 128.065 26.7204 127.65 27.1774C127.228 27.6474 126.648 28.0274 125.91 28.3162C125.173 28.6049 124.235 28.7499 123.099 28.7499C122.285 28.7499 121.57 28.7124 120.956 28.6387C120.341 28.5637 119.781 28.4862 119.274 28.4037C119.074 28.3699 118.951 28.3212 118.906 28.2537C118.854 28.1641 118.83 28.061 118.836 27.9574V26.9662C118.836 26.8349 118.874 26.7349 118.951 26.6687C119.028 26.6026 119.127 26.5675 119.229 26.5699H119.298C119.559 26.6037 119.854 26.6287 120.185 26.6449C120.515 26.6612 120.853 26.6737 121.198 26.6824L122.211 26.7074C122.543 26.7149 122.838 26.7199 123.099 26.7199C123.79 26.7199 124.361 26.6487 124.816 26.5074C125.269 26.3687 125.626 26.1699 125.888 25.9137C126.149 25.6574 126.333 25.3487 126.44 24.9849C126.548 24.6224 126.603 24.2262 126.603 23.7962C126.603 23.4837 126.555 23.1974 126.464 22.9412C126.358 22.6632 126.202 22.4072 126.003 22.1862C125.744 21.899 125.459 21.6378 125.15 21.4062C124.723 21.0817 124.286 20.7719 123.838 20.4774L121.601 19.0149C120.541 18.3224 119.746 17.6249 119.216 16.9224C118.686 16.2212 118.421 15.3749 118.421 14.385C118.421 12.8812 118.901 11.775 119.861 11.065C120.821 10.355 122.186 9.99995 123.951 9.99995V9.99995ZM62.12 9.99995C62.9752 9.99081 63.8244 10.1422 64.6238 10.4462C65.3863 10.7425 66.0438 11.205 66.5988 11.8337C67.1513 12.46 67.5825 13.2662 67.89 14.2474C68.1988 15.2299 68.3525 16.4074 68.3525 17.7774V20.9724C68.3525 22.3437 68.1988 23.5199 67.89 24.5024C67.5825 25.4849 67.1525 26.2899 66.5988 26.9174C66.0623 27.5328 65.3846 28.0089 64.6238 28.3049C63.8244 28.6087 62.9751 28.7596 62.12 28.7499C61.2644 28.7594 60.4147 28.608 59.615 28.3037C58.8546 28.0076 58.1773 27.5315 57.6413 26.9162C57.0875 26.2899 56.6525 25.4849 56.3375 24.5024C56.0213 23.5199 55.8638 22.3437 55.8638 20.9724V17.7774C55.8638 16.4074 56.0213 15.2299 56.3375 14.2474C56.6525 13.2662 57.0875 12.4599 57.6413 11.8324C58.1774 11.2173 58.8547 10.7412 59.615 10.445C60.4148 10.1412 61.2645 9.99026 62.12 9.99995ZM73.26 10.1737C73.3825 10.1737 73.4913 10.2237 73.5825 10.3225C73.675 10.4212 73.72 10.5362 73.72 10.6687V24.1437C73.72 24.6224 73.7563 25.0224 73.825 25.3437C73.8938 25.6662 74.0275 25.9312 74.2275 26.1362C74.4275 26.3437 74.7113 26.4924 75.08 26.5824C75.4488 26.6737 75.9413 26.7199 76.555 26.7199H81.0025C81.1713 26.7199 81.2563 26.8174 81.2563 27.0162V28.1799C81.2571 28.2585 81.2368 28.3357 81.1975 28.4037C81.1794 28.4356 81.1546 28.4631 81.1248 28.4845C81.095 28.5058 81.061 28.5205 81.025 28.5274C80.7175 28.5774 80.165 28.6262 79.3663 28.6749C78.5675 28.7249 77.6225 28.7499 76.5325 28.7499C75.9175 28.7499 75.315 28.6999 74.7238 28.6012C74.1568 28.5121 73.6171 28.2963 73.145 27.9699C72.6838 27.6474 72.315 27.1862 72.0388 26.5824C71.7625 25.9799 71.6238 25.1674 71.6238 24.1424V10.6687C71.6238 10.5362 71.67 10.4212 71.7625 10.3225C71.8023 10.2758 71.8518 10.2382 71.9074 10.2123C71.9631 10.1864 72.0236 10.1728 72.085 10.1724H73.26V10.1737ZM142.523 10.0487C142.769 10.0487 143.041 10.0575 143.341 10.0737L144.24 10.1224C144.54 10.1387 144.819 10.1625 145.08 10.195C145.343 10.2275 145.556 10.2512 145.726 10.2675C145.956 10.3 146.118 10.3475 146.21 10.4125C146.301 10.4762 146.348 10.59 146.348 10.75V10.8712C146.348 11.0499 146.286 11.1687 146.164 11.2262C146.04 11.2837 145.864 11.2962 145.634 11.2637C145.588 11.2637 145.44 11.2512 145.194 11.2262C144.587 11.1662 143.978 11.1204 143.369 11.0887C143.029 11.0737 142.736 11.065 142.49 11.065C140.949 11.065 139.84 11.3012 139.161 11.7725C138.484 12.2437 138.145 12.9424 138.145 13.8674C138.145 14.3149 138.21 14.7074 138.341 15.0462C138.473 15.3849 138.669 15.7074 138.93 16.0137C139.193 16.3199 139.52 16.6212 139.913 16.9187C140.305 17.2162 140.756 17.5312 141.264 17.8612L142.743 18.8287C143.42 19.2749 144.013 19.6849 144.521 20.0562C145.03 20.4287 145.454 20.8124 145.793 21.2099C146.13 21.6062 146.385 22.0274 146.555 22.4749C146.731 22.9596 146.817 23.4721 146.809 23.9874C146.809 24.5499 146.739 25.1124 146.6 25.6749C146.463 26.2374 146.196 26.7449 145.804 27.1999C145.411 27.6549 144.864 28.0224 144.163 28.3037C143.463 28.5837 142.558 28.7249 141.45 28.7249C140.694 28.7249 140.031 28.6999 139.463 28.6524C138.998 28.6174 138.535 28.5611 138.075 28.4837C137.91 28.4673 137.75 28.418 137.604 28.3387C137.504 28.2737 137.454 28.1524 137.454 27.9762V27.8787C137.454 27.6837 137.511 27.5612 137.626 27.5112C137.739 27.4619 137.862 27.4446 137.984 27.4612C138.169 27.4949 138.391 27.5237 138.654 27.5487C138.916 27.5737 139.2 27.5987 139.509 27.6237C139.818 27.6487 140.136 27.6687 140.468 27.6849C140.799 27.7012 141.126 27.7099 141.45 27.7099C142.329 27.7099 143.045 27.6149 143.6 27.4249C144.154 27.2337 144.589 26.9699 144.905 26.6312C145.221 26.2912 145.44 25.8987 145.564 25.4524C145.686 25.0062 145.749 24.5274 145.749 24.0149C145.749 23.5512 145.684 23.1537 145.553 22.8237C145.406 22.4693 145.195 22.1454 144.93 21.8687C144.598 21.5221 144.232 21.2105 143.836 20.9387C143.296 20.5597 142.75 20.1876 142.2 19.8224L140.749 18.8549C140.256 18.5283 139.772 18.189 139.298 17.8374C138.872 17.5253 138.485 17.1631 138.145 16.7587C137.826 16.3772 137.573 15.9456 137.395 15.4812C137.211 14.9726 137.122 14.4345 137.131 13.8937C137.131 13.1337 137.284 12.505 137.591 12.0087C137.899 11.5125 138.306 11.1212 138.814 10.8312C139.351 10.5312 139.935 10.3257 140.541 10.2237C141.195 10.1069 141.858 10.0483 142.523 10.0487V10.0487ZM170.358 10.0487C170.725 10.0487 171.036 10.1525 171.29 10.3587C171.544 10.5662 171.724 10.8587 171.831 11.2387L176.556 28.0312C176.603 28.1763 176.603 28.3324 176.556 28.4774C176.509 28.5924 176.401 28.6512 176.233 28.6512H175.956C175.773 28.6512 175.649 28.5437 175.588 28.3287L173.653 21.6162H167.015L165.128 28.3287C165.095 28.4134 165.044 28.4895 164.978 28.5512C164.949 28.5815 164.915 28.606 164.877 28.6231C164.84 28.6403 164.799 28.6498 164.758 28.6512H164.458C164.305 28.6512 164.201 28.5924 164.148 28.4774C164.094 28.3624 164.09 28.2137 164.135 28.0312L168.86 11.2625C168.966 10.8837 169.148 10.5875 169.401 10.3712C169.654 10.1575 169.973 10.05 170.358 10.05V10.0487ZM46.8775 9.99995C47.815 9.99995 48.675 10.095 49.4588 10.285C50.2425 10.475 50.9213 10.78 51.4975 11.2012C52.0738 11.6225 52.5225 12.1762 52.8463 12.8612C53.1688 13.5462 53.33 14.3837 53.33 15.3737V15.6962C53.33 16.7374 53.1675 17.6087 52.8463 18.3087C52.5463 18.9823 52.0827 19.5701 51.4975 20.0187C50.8908 20.4709 50.1964 20.7915 49.4588 20.9599C48.6127 21.157 47.7462 21.2527 46.8775 21.2449C46.5088 21.2449 46.11 21.2324 45.68 21.2074C45.3106 21.1874 44.9417 21.1582 44.5738 21.1199V28.0812C44.5759 28.2063 44.5354 28.3285 44.4588 28.4274C44.4245 28.4748 44.3794 28.5131 44.3271 28.5392C44.2749 28.5653 44.2171 28.5785 44.1588 28.5774H42.915C42.8566 28.5786 42.7988 28.5655 42.7465 28.5394C42.6943 28.5133 42.6492 28.4748 42.615 28.4274C42.5382 28.3286 42.4976 28.2064 42.5 28.0812V10.8175C42.5 10.455 42.6838 10.2475 43.0525 10.1975C43.5438 10.1325 44.1363 10.0825 44.8275 10.05C45.5188 10.0162 46.2025 9.99995 46.8775 9.99995V9.99995ZM89.09 9.99995C89.305 9.99995 89.5275 10.025 89.7575 10.075C89.9888 10.125 90.2113 10.2187 90.4263 10.3587C90.6413 10.5 90.8375 10.69 91.0138 10.9287C91.19 11.1687 91.325 11.4787 91.4175 11.8575L95.68 28.0074C95.6984 28.063 95.706 28.1215 95.7025 28.1799C95.7025 28.4449 95.5725 28.5762 95.3113 28.5762H93.95C93.9022 28.5784 93.8545 28.5695 93.8107 28.5502C93.7669 28.5309 93.7282 28.5017 93.6975 28.4649C93.6347 28.3882 93.5875 28.2999 93.5588 28.2049L92.0613 22.5087H86.0938L84.6188 28.2049C84.5874 28.3039 84.5315 28.3934 84.4563 28.4649C84.4237 28.4995 84.3846 28.5272 84.3413 28.5465C84.2979 28.5658 84.2512 28.5763 84.2038 28.5774H82.8438C82.5825 28.5774 82.4525 28.4449 82.4525 28.1799C82.4487 28.1215 82.4564 28.0629 82.475 28.0074L86.7375 11.8824C86.8093 11.5492 86.9465 11.2335 87.1413 10.9537C87.4448 10.5206 87.8952 10.2123 88.4088 10.0862C88.6463 10.0287 88.8738 9.99995 89.0888 9.99995H89.09ZM102.891 9.99995C103.798 9.99995 104.646 10.0912 105.438 10.2725C106.229 10.455 106.913 10.7525 107.489 11.165C108.064 11.5775 108.518 12.1224 108.848 12.7999C109.178 13.4774 109.344 14.3199 109.344 15.3274V15.5012C109.344 16.1949 109.255 16.8187 109.079 17.3712C108.901 17.9249 108.651 18.4087 108.329 18.8212C108.006 19.2337 107.623 19.5812 107.178 19.8624C106.727 20.1456 106.238 20.3624 105.725 20.5062L109.919 28.0312C109.961 28.0986 109.985 28.1756 109.989 28.2549C109.989 28.4687 109.889 28.5762 109.689 28.5762H108.214C108.076 28.5762 107.964 28.5637 107.88 28.5387C107.796 28.5137 107.708 28.4199 107.615 28.2549L103.49 20.8737H102.891C102.508 20.8737 102.143 20.8699 101.798 20.8612C101.317 20.8473 100.837 20.8265 100.358 20.7987V28.0812C100.359 28.2065 100.318 28.3286 100.241 28.4274C100.207 28.4748 100.162 28.5131 100.11 28.5392C100.057 28.5653 99.9997 28.5785 99.9413 28.5774H98.6975C98.6391 28.5786 98.5813 28.5655 98.529 28.5394C98.4768 28.5133 98.4317 28.4748 98.3975 28.4274C98.3212 28.3284 98.281 28.2062 98.2838 28.0812V10.7437C98.2838 10.5612 98.3213 10.4337 98.3988 10.3587C98.475 10.2837 98.6213 10.2312 98.8363 10.1987C99.0813 10.165 99.37 10.1362 99.7 10.1112C100.03 10.0862 100.376 10.0662 100.738 10.0487C101.455 10.0174 102.173 10.0012 102.891 9.99995V9.99995ZM114.713 10.1737C114.77 10.1721 114.826 10.1835 114.878 10.2071C114.93 10.2307 114.976 10.2659 115.013 10.31C115.09 10.4036 115.131 10.5222 115.128 10.6437V28.0812C115.129 28.2065 115.088 28.3286 115.011 28.4274C114.977 28.4748 114.932 28.5131 114.88 28.5392C114.827 28.5653 114.77 28.5785 114.711 28.5774H113.445C113.387 28.5785 113.329 28.5653 113.277 28.5392C113.224 28.5131 113.179 28.4748 113.145 28.4274C113.068 28.3285 113.028 28.2063 113.03 28.0812V10.6437C113.026 10.5222 113.067 10.4035 113.145 10.31C113.181 10.2657 113.227 10.2303 113.279 10.2064C113.331 10.1826 113.388 10.171 113.445 10.1724H114.713V10.1737ZM150.656 10.1737C150.78 10.1737 150.876 10.2187 150.944 10.31C151.015 10.4063 151.052 10.5238 151.049 10.6437V18.2237H160.265V10.6437C160.265 10.5125 160.3 10.4 160.371 10.31C160.406 10.265 160.451 10.2291 160.502 10.2051C160.553 10.1812 160.61 10.17 160.666 10.1724H160.879C161.004 10.1724 161.103 10.2187 161.173 10.31C161.245 10.4059 161.282 10.5236 161.279 10.6437V28.1062C161.282 28.2263 161.245 28.344 161.173 28.4399C161.138 28.4847 161.094 28.5206 161.042 28.5445C160.991 28.5684 160.935 28.5797 160.879 28.5774H160.666C160.54 28.5774 160.441 28.5312 160.371 28.4399C160.299 28.344 160.261 28.2263 160.265 28.1062V19.2374H151.049V28.1049C151.053 28.2247 151.016 28.3422 150.945 28.4387C150.912 28.4833 150.868 28.5191 150.818 28.5431C150.768 28.567 150.713 28.5784 150.658 28.5762H150.426C150.371 28.5784 150.316 28.567 150.265 28.5431C150.215 28.5191 150.172 28.4833 150.139 28.4387C150.068 28.3422 150.031 28.2247 150.035 28.1049V10.6437C150.035 10.5125 150.069 10.4 150.139 10.31C150.172 10.2654 150.215 10.2295 150.265 10.2056C150.316 10.1816 150.371 10.1702 150.426 10.1724H150.656V10.1737ZM183.421 10.0487C184.45 10.0487 185.356 10.1362 186.14 10.31C186.924 10.4837 187.58 10.7675 188.11 11.1637C188.64 11.5599 189.035 12.0812 189.298 12.725C189.559 13.3687 189.689 14.1612 189.689 15.1024V15.2262C189.689 16.7449 189.343 17.8849 188.651 18.6437C187.961 19.4037 186.931 19.9074 185.564 20.1562L190.219 27.8587C190.311 28.0237 190.341 28.1837 190.311 28.3412C190.28 28.4987 190.165 28.5762 189.965 28.5762H189.665C189.594 28.5721 189.526 28.5459 189.47 28.5012C189.411 28.4623 189.36 28.4122 189.32 28.3537L184.413 20.2787C184.244 20.2948 184.074 20.299 183.905 20.2912C183.744 20.282 183.583 20.2778 183.421 20.2787H181.601C181.233 20.2787 180.849 20.2712 180.449 20.2537V28.1062C180.453 28.2259 180.416 28.3434 180.345 28.4399C180.312 28.4845 180.268 28.5204 180.218 28.5443C180.168 28.5683 180.113 28.5797 180.058 28.5774H179.828C179.772 28.5799 179.716 28.5686 179.666 28.5446C179.616 28.5206 179.572 28.4847 179.539 28.4399C179.468 28.3434 179.431 28.2259 179.435 28.1062V10.6187C179.435 10.5037 179.473 10.4 179.55 10.31C179.619 10.2232 179.718 10.1652 179.828 10.1475C180.028 10.1325 180.28 10.12 180.588 10.1112C181.244 10.0929 181.901 10.0762 182.558 10.0612C182.888 10.0537 183.175 10.0487 183.421 10.0487V10.0487ZM202.063 10.1737C202.354 10.1737 202.5 10.3137 202.5 10.595V10.7925C202.5 11.0575 202.354 11.1887 202.063 11.1887H196.118C195.841 11.1887 195.591 11.21 195.368 11.2512C195.165 11.2835 194.974 11.3689 194.815 11.4987C194.656 11.6432 194.537 11.8267 194.47 12.0312C194.385 12.2625 194.343 12.5687 194.343 12.9474V18.3974H202.063C202.354 18.3974 202.5 18.5287 202.5 18.7924V19.0399C202.5 19.3212 202.354 19.4612 202.063 19.4612H194.343V25.8024C194.343 26.1824 194.385 26.4874 194.47 26.7187C194.554 26.9499 194.67 27.1274 194.815 27.2512C194.961 27.3762 195.145 27.4574 195.369 27.4987C195.591 27.5399 195.841 27.5612 196.118 27.5612H202.063C202.354 27.5612 202.5 27.6937 202.5 27.9574V28.1562C202.5 28.4362 202.354 28.5762 202.063 28.5762H196.118C195.243 28.5762 194.558 28.3749 194.068 27.9699C193.575 27.5649 193.33 26.8424 193.33 25.8024V12.9474C193.33 11.9074 193.575 11.1849 194.068 10.7799C194.558 10.3762 195.243 10.1737 196.118 10.1737H202.063V10.1737ZM62.12 12.0312C61.5386 12.0228 60.9611 12.1281 60.42 12.3412C59.9054 12.5541 59.4567 12.9001 59.12 13.3437C58.7613 13.8062 58.4863 14.4012 58.295 15.1274C58.1025 15.8537 58.0075 16.7374 58.0075 17.7774V20.9724C58.0075 22.0124 58.1025 22.8974 58.295 23.6224C58.4863 24.3499 58.7575 24.9437 59.11 25.4062C59.4613 25.8687 59.8938 26.2037 60.4075 26.4087C60.92 26.6162 61.4913 26.7187 62.12 26.7187C62.7475 26.7187 63.315 26.6162 63.82 26.4087C64.3323 26.1978 64.7774 25.8512 65.1075 25.4062C65.4575 24.9437 65.7313 24.3499 65.9225 23.6224C66.1138 22.8974 66.21 22.0124 66.21 20.9724V17.7774C66.21 16.7374 66.1138 15.8537 65.9225 15.1274C65.7313 14.4012 65.4588 13.8062 65.1063 13.3437C64.7763 12.8991 64.3317 12.5526 63.82 12.3412C63.279 12.1281 62.7015 12.0228 62.12 12.0312ZM89.09 11.9562C88.86 11.9562 88.705 12.1062 88.6288 12.4025L86.5325 20.5524H91.625L89.5275 12.4025C89.45 12.105 89.305 11.9575 89.09 11.9575V11.9562ZM170.358 11.065C170.188 11.065 170.065 11.11 169.989 11.2012C169.908 11.2976 169.852 11.4121 169.826 11.5349L167.293 20.5262H173.399L170.886 11.5587C170.858 11.4334 170.803 11.3157 170.725 11.2137C170.649 11.1137 170.525 11.0637 170.358 11.0637V11.065ZM46.8775 11.9075C46.5238 11.9075 46.1213 11.9162 45.6688 11.9324C45.215 11.9487 44.85 11.9737 44.5738 12.0075V19.2387C44.7113 19.2387 44.8813 19.2474 45.0813 19.2637C45.2813 19.2799 45.4875 19.2924 45.7025 19.3012L46.3363 19.3262C46.5438 19.3337 46.7238 19.3387 46.8775 19.3387C48.46 19.3387 49.5813 19.0499 50.2425 18.4737C50.9025 17.8987 51.2325 16.9674 51.2325 15.6837V15.3624C51.2325 14.1124 50.8788 13.2249 50.1725 12.6974C49.4663 12.1712 48.3675 11.9075 46.8775 11.9075V11.9075ZM183.421 11.065C182.93 11.065 182.4 11.0737 181.831 11.0899C181.263 11.1062 180.803 11.1312 180.449 11.165V19.2387H181.083C181.351 19.2387 181.633 19.2424 181.924 19.2512C182.215 19.2599 182.496 19.2637 182.765 19.2637H183.421C184.313 19.2637 185.088 19.2012 185.749 19.0762C186.409 18.9512 186.954 18.7399 187.385 18.4412C187.815 18.1424 188.138 17.7312 188.353 17.2074C188.568 16.6849 188.675 16.0237 188.675 15.2262V15.1012C188.675 14.3212 188.563 13.6737 188.341 13.1587C188.13 12.6578 187.783 12.2261 187.339 11.9124C186.893 11.5974 186.344 11.3762 185.691 11.2525C184.942 11.1194 184.182 11.0566 183.421 11.065ZM102.891 12.0312H102.269C102.039 12.0312 101.805 12.035 101.568 12.0437C101.329 12.0512 101.103 12.0599 100.888 12.0687C100.71 12.0747 100.534 12.0872 100.358 12.1062V18.9162C101.202 18.9441 102.047 18.9608 102.891 18.9662C103.598 18.9662 104.224 18.9124 104.77 18.8037C105.315 18.6974 105.771 18.5112 106.141 18.2462C106.51 17.9799 106.79 17.6287 106.981 17.1887C107.174 16.7512 107.269 16.1912 107.269 15.5112V15.3362C107.269 14.0937 106.901 13.2324 106.164 12.7524C105.426 12.2712 104.335 12.0312 102.891 12.0312V12.0312Z" fill="#0046B9"/>
</svg>
