<svg width="22" height="20" viewBox="0 0 22 20" fill="none" xmlns="http://www.w3.org/2000/svg">
<path fill-rule="evenodd" clip-rule="evenodd" d="M11 0C17.075 0 22 3.818 22 8.527C22 13.237 17.075 17.055 11 17.055C10.346 17.055 9.082 16.925 9.082 16.925L4.357 19.96C4.177 20.076 3.942 19.924 3.982 19.717L4.777 15.56C1.892 14.023 0 11.447 0 8.527C0 3.818 4.924 0 11 0ZM15.386 6.076C15.3098 6.07534 15.2343 6.08969 15.1637 6.11823C15.093 6.14677 15.0287 6.18894 14.9744 6.24234C14.9201 6.29573 14.8768 6.3593 14.8471 6.42942C14.8173 6.49954 14.8017 6.57483 14.801 6.651V10.885C14.8015 10.9613 14.8171 11.0367 14.8468 11.1069C14.8765 11.1771 14.9197 11.2408 14.9741 11.2943C15.0284 11.3478 15.0927 11.3901 15.1634 11.4187C15.2341 11.4473 15.3097 11.4617 15.386 11.461C15.4623 11.4617 15.5379 11.4473 15.6086 11.4187C15.6793 11.3901 15.7436 11.3478 15.7979 11.2943C15.8523 11.2408 15.8955 11.1771 15.9252 11.1069C15.9549 11.0367 15.9705 10.9613 15.971 10.885V9.58L16.305 9.252L17.859 11.256C17.9434 11.3654 18.0673 11.4374 18.2042 11.4564C18.341 11.4755 18.4799 11.4402 18.591 11.358C18.6459 11.3182 18.6923 11.2678 18.7274 11.2097C18.7625 11.1516 18.7855 11.0871 18.7952 11.02C18.8049 10.9529 18.8011 10.8844 18.7838 10.8188C18.7666 10.7532 18.7364 10.6917 18.695 10.638L17.052 8.518L18.537 7.058C18.5845 7.01145 18.6222 6.9559 18.6479 6.8946C18.6737 6.8333 18.6869 6.76749 18.6869 6.701C18.6869 6.63451 18.6737 6.5687 18.6479 6.5074C18.6222 6.4461 18.5845 6.39055 18.537 6.344C18.4396 6.24919 18.309 6.19615 18.173 6.19615C18.037 6.19615 17.9064 6.24919 17.809 6.344L15.971 8.149V6.652C15.9703 6.57583 15.9547 6.50054 15.9249 6.43042C15.8952 6.3603 15.8519 6.29673 15.7976 6.24334C15.7433 6.18994 15.679 6.14777 15.6083 6.11923C15.5377 6.09069 15.4622 6.07634 15.386 6.077V6.076ZM8.645 6.076C8.55912 6.07584 8.47364 6.08762 8.391 6.111C8.31338 6.13258 8.23928 6.16525 8.171 6.208C8.10694 6.24814 8.04958 6.29808 8.001 6.356C7.96949 6.39436 7.94263 6.43632 7.921 6.481C7.901 6.521 7.824 6.738 7.799 6.805L7.772 6.875L7.739 6.961L7.702 7.058L7.661 7.168L7.616 7.288L7.566 7.417L7.514 7.555L7.459 7.701L7.401 7.853L7.341 8.011L7.279 8.173L7.216 8.339L7.153 8.507L7.088 8.677L7.024 8.847L6.96 9.015L6.896 9.182L6.834 9.347L6.773 9.507L6.713 9.663L6.657 9.813L6.603 9.956L6.552 10.091L6.504 10.217L6.46 10.332C6.43517 10.3977 6.41017 10.4634 6.385 10.529L6.355 10.609L6.33 10.674L6.312 10.724L6.299 10.757C6.27355 10.8217 6.26153 10.8909 6.26366 10.9605C6.26579 11.03 6.28204 11.0983 6.31141 11.1614C6.34077 11.2244 6.38265 11.2808 6.4345 11.3272C6.48635 11.3735 6.54708 11.4088 6.613 11.431C6.7434 11.4768 6.88658 11.4694 7.01158 11.4105C7.13658 11.3515 7.23336 11.2457 7.281 11.116L7.551 10.362H9.712L9.982 11.116C10.077 11.384 10.377 11.526 10.649 11.431C10.7134 11.4094 10.7729 11.3752 10.824 11.3304C10.8751 11.2856 10.9168 11.2311 10.9466 11.1701C10.9765 11.1091 10.994 11.0427 10.998 10.9749C11.002 10.9071 10.9925 10.8391 10.97 10.775L9.39 6.527L9.385 6.523C9.284 6.264 8.992 6.076 8.645 6.076ZM6.545 6.15H3.375C3.30474 6.14934 3.23504 6.16253 3.16988 6.1888C3.10472 6.21508 3.04537 6.25394 2.99523 6.30316C2.94508 6.35237 2.90512 6.41098 2.87763 6.47564C2.85014 6.5403 2.83565 6.60974 2.835 6.68C2.835 6.973 3.077 7.21 3.375 7.21H4.405V10.942C4.40813 11.0796 4.46486 11.2105 4.56311 11.3069C4.66136 11.4033 4.79337 11.4575 4.931 11.458H5.047C5.18519 11.4582 5.31799 11.4044 5.417 11.308C5.46579 11.2603 5.50462 11.2034 5.53123 11.1406C5.55784 11.0777 5.5717 11.0102 5.572 10.942V7.21H6.545C6.843 7.21 7.085 6.973 7.085 6.68C7.08435 6.60974 7.06986 6.5403 7.04237 6.47564C7.01488 6.41098 6.97492 6.35237 6.92477 6.30316C6.87463 6.25394 6.81528 6.21508 6.75012 6.1888C6.68496 6.16253 6.61526 6.14934 6.545 6.15ZM11.905 6.076C11.8288 6.07534 11.7533 6.08969 11.6827 6.11823C11.612 6.14677 11.5477 6.18894 11.4934 6.24234C11.4391 6.29573 11.3958 6.3593 11.3661 6.42942C11.3363 6.49954 11.3207 6.57483 11.32 6.651V10.943C11.32 11.209 11.54 11.425 11.81 11.425H13.964C14.235 11.425 14.454 11.209 14.454 10.943C14.4533 10.8793 14.4402 10.8164 14.4152 10.7578C14.3902 10.6992 14.3539 10.6461 14.3084 10.6015C14.2629 10.5569 14.2091 10.5218 14.15 10.498C14.0909 10.4742 14.0277 10.4623 13.964 10.463H12.491V6.65C12.4903 6.57375 12.4747 6.49837 12.4448 6.42819C12.415 6.358 12.3717 6.29439 12.3172 6.24098C12.2628 6.18757 12.1984 6.14542 12.1276 6.11694C12.0569 6.08846 11.9813 6.07421 11.905 6.075V6.076ZM8.62 7.363L8.643 7.365L9.369 9.4H7.893L8.62 7.363Z" fill="#777777" fill-opacity="0.5"/>
</svg>
