<svg width="24" height="11" viewBox="0 0 24 11" fill="none" xmlns="http://www.w3.org/2000/svg">
<path fill-rule="evenodd" clip-rule="evenodd" d="M21.052 6.627C20.7301 6.62462 20.4223 6.4946 20.1962 6.26549C19.9701 6.03637 19.8441 5.7269 19.846 5.405C19.846 4.73 20.386 4.182 21.052 4.182C21.718 4.182 22.258 4.73 22.258 5.405C22.258 6.079 21.718 6.627 21.052 6.627ZM22.175 2.662V3.193C22.175 3.193 21.635 2.469 20.599 2.469C20.599 2.469 17.941 2.356 17.941 5.384C17.941 5.384 17.911 8.206 20.527 8.206C20.527 8.206 21.591 8.25 22.175 7.481V7.926C22.175 7.926 22.307 9.315 20.978 9.315H20.527V11H21.255C21.255 11 24 11.03 24 8.028V2.662H22.175ZM13.819 6.627C13.4971 6.62462 13.1893 6.4946 12.9632 6.26549C12.7371 6.03637 12.6111 5.7269 12.613 5.405C12.613 4.73 13.153 4.182 13.819 4.182C14.484 4.182 15.027 4.73 15.027 5.405C15.027 6.079 14.484 6.627 13.819 6.627ZM13.818 2.469C13.818 2.469 10.716 2.47 10.716 5.405C10.716 5.405 10.616 8.3 13.818 8.3C13.818 8.3 16.992 8.295 16.992 5.405C16.992 5.405 17.096 2.469 13.818 2.469ZM6.724 0V1.834C6.724 1.834 7.581 1.794 7.581 3.411V8.101H9.392V2.977C9.392 2.977 9.47 0 6.724 0ZM3.062 6.627C2.73967 6.62515 2.43126 6.49539 2.20456 6.26625C1.97785 6.03711 1.8514 5.72733 1.853 5.405C1.853 4.73 2.394 4.182 3.062 4.182C3.727 4.182 4.267 4.73 4.267 5.405C4.267 6.079 3.727 6.627 3.062 6.627ZM3.475 2.445C3.475 2.445 2.638 2.445 1.878 3.193V0.177H0V8.102H1.897V7.482C1.897 7.482 2.345 8.3 3.475 8.3C3.475 8.3 6.121 8.202 6.121 5.343C6.121 5.343 6.025 2.445 3.475 2.445Z" fill="#777777" fill-opacity="0.5"/>
</svg>
