<svg width="114" height="114" viewBox="0 0 114 114" xmlns="http://www.w3.org/2000/svg">
    <g fill="none" fill-rule="evenodd">
        <circle fill="#BAC7D8" cx="57" cy="57" r="51"/>
        <path d="M68.914 37.814c.31 2.74-.21 6.148-1.63 9.55-2.448 5.863-6.758 9.779-10.261 9.632-3.503.147-7.814-3.769-10.26-9.631-.93-2.226-1.473-4.454-1.652-6.496A12.515 12.515 0 0 1 45 39.2C45 32.462 50.37 27 56.995 27c6.164 0 11.242 4.729 11.919 10.814zM36.408 81A15.37 15.37 0 0 1 36 77.5C36 67.835 45.402 60 57 60s21 7.835 21 17.5c0 1.182-.14 2.353-.408 3.5H36.408z" fill="#FFF"/>
    </g>
</svg>
